<mxfile host="app.diagrams.net" agent="Mozilla/5.0 (Macintosh; Intel Mac OS X 10_15_7) AppleWebKit/537.36 (KHTML, like Gecko) Chrome/140.0.0.0 Safari/537.36" version="28.2.5">
  <diagram name="Page-1" id="N22pJcAk_Xkx7xNmMhne">
    <mxGraphModel dx="1081" dy="802" grid="1" gridSize="10" guides="1" tooltips="1" connect="1" arrows="1" fold="1" page="1" pageScale="1" pageWidth="827" pageHeight="1169" math="0" shadow="0">
      <root>
        <mxCell id="0" />
        <mxCell id="1" parent="0" />
        <mxCell id="CVNRj6PSU8cSWjk6QRYD-3" value="" style="edgeStyle=orthogonalEdgeStyle;rounded=0;orthogonalLoop=1;jettySize=auto;html=1;" edge="1" parent="1" source="CVNRj6PSU8cSWjk6QRYD-1" target="CVNRj6PSU8cSWjk6QRYD-2">
          <mxGeometry relative="1" as="geometry" />
        </mxCell>
        <mxCell id="CVNRj6PSU8cSWjk6QRYD-1" value="start" style="ellipse;whiteSpace=wrap;html=1;" vertex="1" parent="1">
          <mxGeometry x="360" y="40" width="80" height="30" as="geometry" />
        </mxCell>
        <mxCell id="CVNRj6PSU8cSWjk6QRYD-5" value="" style="edgeStyle=orthogonalEdgeStyle;rounded=0;orthogonalLoop=1;jettySize=auto;html=1;" edge="1" parent="1" source="CVNRj6PSU8cSWjk6QRYD-2" target="CVNRj6PSU8cSWjk6QRYD-4">
          <mxGeometry relative="1" as="geometry" />
        </mxCell>
        <mxCell id="CVNRj6PSU8cSWjk6QRYD-2" value="val" style="shape=parallelogram;perimeter=parallelogramPerimeter;whiteSpace=wrap;html=1;fixedSize=1;" vertex="1" parent="1">
          <mxGeometry x="340" y="100" width="120" height="30" as="geometry" />
        </mxCell>
        <mxCell id="CVNRj6PSU8cSWjk6QRYD-7" value="" style="edgeStyle=orthogonalEdgeStyle;rounded=0;orthogonalLoop=1;jettySize=auto;html=1;" edge="1" parent="1" source="CVNRj6PSU8cSWjk6QRYD-4" target="CVNRj6PSU8cSWjk6QRYD-6">
          <mxGeometry relative="1" as="geometry" />
        </mxCell>
        <mxCell id="CVNRj6PSU8cSWjk6QRYD-4" value="val &amp;lt; 0" style="rhombus;whiteSpace=wrap;html=1;" vertex="1" parent="1">
          <mxGeometry x="360" y="160" width="80" height="45" as="geometry" />
        </mxCell>
        <mxCell id="CVNRj6PSU8cSWjk6QRYD-9" value="" style="edgeStyle=orthogonalEdgeStyle;rounded=0;orthogonalLoop=1;jettySize=auto;html=1;" edge="1" parent="1" source="CVNRj6PSU8cSWjk6QRYD-6" target="CVNRj6PSU8cSWjk6QRYD-8">
          <mxGeometry relative="1" as="geometry">
            <Array as="points">
              <mxPoint x="295" y="260" />
            </Array>
          </mxGeometry>
        </mxCell>
        <mxCell id="CVNRj6PSU8cSWjk6QRYD-6" value="val = -val" style="whiteSpace=wrap;html=1;" vertex="1" parent="1">
          <mxGeometry x="250" y="210" width="90" height="30" as="geometry" />
        </mxCell>
        <mxCell id="CVNRj6PSU8cSWjk6QRYD-15" value="" style="edgeStyle=orthogonalEdgeStyle;rounded=0;orthogonalLoop=1;jettySize=auto;html=1;" edge="1" parent="1" source="CVNRj6PSU8cSWjk6QRYD-8" target="CVNRj6PSU8cSWjk6QRYD-14">
          <mxGeometry relative="1" as="geometry" />
        </mxCell>
        <mxCell id="CVNRj6PSU8cSWjk6QRYD-8" value="" style="shape=waypoint;sketch=0;size=6;pointerEvents=1;points=[];fillColor=default;resizable=0;rotatable=0;perimeter=centerPerimeter;snapToPoint=1;" vertex="1" parent="1">
          <mxGeometry x="390" y="250" width="20" height="20" as="geometry" />
        </mxCell>
        <mxCell id="CVNRj6PSU8cSWjk6QRYD-10" value="" style="endArrow=classic;html=1;rounded=0;entryX=0.672;entryY=0.456;entryDx=0;entryDy=0;entryPerimeter=0;exitX=1;exitY=0.5;exitDx=0;exitDy=0;" edge="1" parent="1" source="CVNRj6PSU8cSWjk6QRYD-4" target="CVNRj6PSU8cSWjk6QRYD-8">
          <mxGeometry width="50" height="50" relative="1" as="geometry">
            <mxPoint x="420" y="220" as="sourcePoint" />
            <mxPoint x="470" y="170" as="targetPoint" />
            <Array as="points">
              <mxPoint x="480" y="183" />
              <mxPoint x="480" y="260" />
            </Array>
          </mxGeometry>
        </mxCell>
        <mxCell id="CVNRj6PSU8cSWjk6QRYD-17" value="" style="edgeStyle=orthogonalEdgeStyle;rounded=0;orthogonalLoop=1;jettySize=auto;html=1;" edge="1" parent="1" source="CVNRj6PSU8cSWjk6QRYD-14" target="CVNRj6PSU8cSWjk6QRYD-16">
          <mxGeometry relative="1" as="geometry" />
        </mxCell>
        <mxCell id="CVNRj6PSU8cSWjk6QRYD-14" value="val" style="shape=parallelogram;perimeter=parallelogramPerimeter;whiteSpace=wrap;html=1;fixedSize=1;" vertex="1" parent="1">
          <mxGeometry x="340" y="290" width="120" height="30" as="geometry" />
        </mxCell>
        <mxCell id="CVNRj6PSU8cSWjk6QRYD-16" value="end" style="ellipse;whiteSpace=wrap;html=1;" vertex="1" parent="1">
          <mxGeometry x="360" y="350" width="80" height="25" as="geometry" />
        </mxCell>
        <mxCell id="CVNRj6PSU8cSWjk6QRYD-18" value="True" style="text;html=1;align=center;verticalAlign=middle;whiteSpace=wrap;rounded=0;" vertex="1" parent="1">
          <mxGeometry x="310" y="160" width="60" height="30" as="geometry" />
        </mxCell>
        <mxCell id="CVNRj6PSU8cSWjk6QRYD-19" value="False" style="text;html=1;align=center;verticalAlign=middle;whiteSpace=wrap;rounded=0;" vertex="1" parent="1">
          <mxGeometry x="430" y="160" width="60" height="30" as="geometry" />
        </mxCell>
      </root>
    </mxGraphModel>
  </diagram>
</mxfile>
